<svg xmlns="http://www.w3.org/2000/svg" viewBox="0 0 324 324">
<g transform="translate(0,324) scale(0.1,-0.1)" fill="#29B5E8" stroke="none">
<path d="M1162 3214 c-44 -30 -52 -64 -52 -207 l0 -134 -74 -37 c-41 -20 -109
-61 -152 -92 -43 -31 -84 -58 -90 -61 -7 -2 -64 25 -127 61 -71 41 -125 66
-144 66 -66 0 -88 -28 -295 -380 -258 -440 -257 -421 -33 -549 96 -55 120 -73
119 -90 0 -11 -1 -95 -2 -186 l-2 -164 -67 -37 c-218 -118 -238 -136 -237
-204 1 -32 38 -103 193 -372 110 -190 207 -347 226 -365 55 -52 93 -47 237 32
66 36 121 65 124 65 2 0 46 -29 98 -65 52 -36 124 -79 160 -96 l66 -31 0 -143
c0 -129 2 -145 21 -169 44 -56 44 -56 476 -56 367 0 401 1 432 18 59 32 71 68
71 218 l0 132 93 45 c51 25 127 70 169 100 l76 55 124 -69 c133 -74 175 -84
227 -53 33 20 12 -15 243 387 209 362 214 376 168 436 -15 20 -71 57 -140 95
l-115 63 -3 194 -2 195 119 67 c65 37 127 77 136 88 12 12 20 39 22 72 3 52 2
53 -195 387 -208 352 -230 380 -295 380 -19 0 -79 -27 -157 -70 l-127 -70 -96
64 c-53 36 -130 81 -172 100 l-75 36 0 131 c0 141 -8 170 -56 208 -26 21 -36
21 -448 21 -366 0 -424 -2 -444 -16z m698 -355 c6 -160 10 -165 132 -213 114
-44 198 -92 312 -179 114 -87 128 -88 276 -9 59 31 110 55 113 52 9 -10 226
-385 232 -401 5 -13 -12 -27 -72 -59 -158 -86 -182 -119 -162 -220 7 -39 9
-121 5 -251 -9 -268 -9 -260 11 -287 10 -13 64 -49 121 -80 56 -31 102 -60
102 -63 0 -4 -55 -102 -122 -218 l-121 -211 -76 42 c-130 72 -144 78 -183 78
-29 0 -51 -11 -100 -48 -148 -113 -274 -184 -374 -211 -22 -6 -51 -22 -65 -37
-22 -24 -24 -35 -29 -157 l-5 -132 -249 0 -249 0 2 95 c2 161 -19 205 -113
236 -87 28 -161 71 -268 152 -57 43 -113 84 -125 90 -29 16 -84 15 -108 -1
-11 -8 -59 -35 -107 -61 l-87 -46 -39 67 c-22 38 -78 134 -125 215 l-86 148
106 57 c58 32 113 69 122 82 12 20 17 64 22 206 4 99 10 236 14 305 7 119 6
126 -14 152 -12 15 -67 53 -122 84 -54 31 -99 60 -99 66 0 8 224 395 235 407
2 2 47 -22 100 -53 76 -44 105 -56 138 -56 47 0 54 4 175 101 89 71 184 126
268 153 93 30 115 75 113 231 0 50 0 93 0 98 1 4 112 6 249 5 l247 -3 5 -126z
M1400 2327 c-40 -20 -50 -53 -50 -164 0 -57 -2 -103 -4 -103 -2 0 -43 22 -92
50 -103 57 -142 63 -179 25 -29 -28 -33 -79 -10 -111 22 -32 347 -214 383
-214 18 0 39 10 56 26 l26 27 0 212 0 213 -31 26 c-34 29 -61 32 -99 13z
M1710 2312 l-30 -30 0 -201 c0 -127 4 -209 11 -225 14 -30 59 -50 97 -43 29 6
320 173 353 203 30 27 26 97 -7 123 -42 33 -78 26 -180 -33 l-92 -54 -4 119
c-3 134 -13 155 -81 166 -31 5 -40 1 -67 -25z M915 1855 c-18 -17 -25 -35 -25
-64 0 -47 23 -70 130 -127 38 -21 70 -41 70 -45 0 -4 -42 -32 -94 -63 -51 -30
-96 -63 -100 -72 -22 -57 5 -116 59 -130 33 -8 45 -3 237 109 156 91 178 110
178 160 0 41 -28 63 -198 161 -186 105 -215 113 -257 71z M2041 1785 c-90 -51
-170 -100 -178 -107 -25 -25 -27 -80 -4 -109 23 -29 347 -219 374 -219 33 0
75 29 86 61 19 56 -4 89 -108 149 -50 29 -91 55 -91 59 0 3 33 24 72 46 109
61 128 80 128 126 0 29 -7 47 -25 64 -42 43 -73 34 -254 -70z M1512 1717 c-95
-96 -96 -109 -4 -200 91 -90 105 -90 195 1 90 91 90 103 -5 199 -43 43 -81 73
-93 73 -12 0 -50 -30 -93 -73z m142 -79 c15 -21 14 -24 -11 -50 -32 -34 -40
-34 -70 -6 -30 28 -29 52 3 77 29 23 52 17 78 -21z M1405 1416 c-60 -27 -329
-188 -342 -204 -21 -28 -16 -86 10 -110 45 -42 73 -38 176 22 51 31 95 56 96
56 2 0 5 -52 7 -116 3 -113 4 -116 31 -140 38 -32 90 -32 122 1 25 24 25 24
25 234 0 204 -1 211 -22 235 -29 32 -65 40 -103 22z M1734 1420 c-50 -20 -54
-40 -54 -261 l0 -206 26 -27 c19 -19 37 -26 63 -26 73 1 91 36 91 174 0 58 2
106 4 106 3 0 47 -25 99 -55 51 -30 103 -55 115 -55 11 0 34 12 51 26 25 20
31 34 31 64 0 22 -7 46 -17 58 -22 24 -329 198 -363 206 -14 3 -35 1 -46 -4z"/>
</g>
</svg>
