<svg xmlns="http://www.w3.org/2000/svg" xmlns:lucid="lucid" width="123.19" height="125.16"><g lucid:page-tab-id="0_0"><path d="M-1284.92-409.02h1500v1500h-1500z" fill="#fff"/><path d="M29.44 23.66l8.26 1.75-8.26 1.63c-2.1.38-2.83 1.38-1.6 2.13 1.23.63 3.82.88 5.9.5l14.8-3c.98-.13 1.6-.5 1.97-.88.13-.12.13-.25.13-.5 0-.12 0-.12-.12-.25-.24-.37-.98-.75-2.1-1l-14.65-2.88c-2.1-.5-4.68-.25-5.9.5-1.24.75-.5 1.63 1.6 2.13zM37.2 18.9l14.8 3c.73.13 1.6.25 2.45.25 2.22-.12 4.07-.75 4.07-1.62v-5.9c0-.86-1.98-1.6-4.44-1.6-2.34 0-4.3.74-4.3 1.6v3.27l-8.26-1.63c-1.98-.37-4.7-.12-5.92.63-1.23.62-.5 1.62 1.6 2zM69.6 22.15c.86 0 1.73-.12 2.47-.25l14.78-3c2.1-.38 2.7-1.25 1.6-2-1.23-.75-3.94-1-5.9-.63l-8.27 1.75v-3.38c0-.87-1.97-1.5-4.43-1.5-2.34 0-4.3.63-4.3 1.5v6c0 .76 1.7 1.4 4.05 1.5zM54.45 28.66c-.86-.12-1.72 0-2.46.13l-14.8 3c-2.1.37-2.83 1.37-1.6 2.12 1.23.62 3.82.87 5.92.5l8.25-1.63v3.25c0 .87 1.97 1.62 4.3 1.62 2.47 0 4.45-.75 4.45-1.62v-5.9c0-.86-1.85-1.5-4.07-1.6zM53.96 25.03v.63s.12.25.24.25l6.16 2.26h3.33l6.15-2.25c.12 0 .25-.12.25-.24v-.63l-.25-.25-6.16-2.13c-.13-.12-.5-.12-.75-.12H61.1c-.24 0-.6 0-.74.12l-6.16 2.13c-.12.13-.24.13-.24.25zm5.17.38s.12-.24.25-.37l1.85-.5c.12-.12.5-.12.73-.12h.13c.23 0 .6 0 .73.13l1.84.5c.13.13.25.25.25.38l-.25.26-1.84.62c-.13 0-.5.13-.74.13h-.14c-.24 0-.6-.12-.73-.12l-1.85-.62-.25-.25zM86.85 31.8l-14.78-3c-.74-.14-1.6-.26-2.47-.14-2.34 0-4.06.63-4.06 1.5v6c0 .9 1.97 1.5 4.3 1.5 2.47 0 4.44-.6 4.44-1.5V32.8l8.26 1.62c1.97.5 4.68.25 5.9-.5 1.12-.75.5-1.63-1.6-2.13zM73.54 24.9c-.12.13-.12.26-.12.38 0 .25 0 .38.12.5.37.38 1 .75 1.98.88l14.78 3c1.97.38 4.68.13 5.9-.62 1.24-.63.5-1.63-1.6-2l-8.24-1.76 8.25-1.62c2.1-.38 2.84-1.38 1.6-2.13-1.22-.63-3.8-.88-5.9-.5l-14.78 3c-1 .13-1.73.5-1.98.88z" stroke="#000" stroke-opacity="0" stroke-width="0" fill="#29b5e8"/><path d="M61.6 0C26.5 0 0 10.9 0 25.4v74.35c0 14.52 26.5 25.4 61.6 25.4s61.6-10.88 61.6-25.4V25.4C123.2 10.9 96.7 0 61.6 0zm55.68 75.1c0 9.26-22.8 19.64-55.68 19.64-32.9 0-55.7-10.38-55.7-19.65V60.57c9.62 8.63 30.44 14.26 55.7 14.26 25.25 0 46.07-5.63 55.68-14.26v14.5zm0-25.8c0 9.27-22.8 19.66-55.68 19.66-32.9 0-55.7-10.4-55.7-19.65V36.68c9.62 8.5 30.44 14.27 55.7 14.27 25.25 0 46.07-5.76 55.68-14.27V49.3zM61.6 5.9c32.9 0 55.68 10.27 55.68 19.53 0 9.27-22.8 19.66-55.68 19.66-32.9 0-55.7-10.4-55.7-19.65C5.9 16.16 28.7 5.9 61.6 5.9zm0 113.4c-32.9 0-55.7-10.27-55.7-19.53V86.23c9.62 8.64 30.44 14.27 55.7 14.27 25.25 0 46.07-5.63 55.68-14.27v13.52c0 9.26-22.8 19.52-55.68 19.52z" stroke="#000" stroke-opacity="0" stroke-width="0" fill="#29b5e8"/></g></svg>