<svg xmlns="http://www.w3.org/2000/svg" viewBox="0 0 102 102">
<g transform="translate(0,102) scale(0.1,-0.1)" fill="#29B5E8" stroke="none">
<path d="M355 995 c-22 -21 -25 -33 -25 -100 l0 -77 -64 36 c-72 40 -105 45
-129 18 -28 -30 -21 -68 16 -95 45 -34 231 -137 246 -137 6 0 23 11 36 25 24
23 25 29 25 165 0 136 -1 142 -25 165 -13 14 -31 25 -40 25 -9 0 -27 -11 -40
-25z M585 995 c-24 -23 -25 -29 -25 -165 0 -136 1 -142 25 -165 13 -14 30 -25
36 -25 15 0 201 103 247 137 37 28 43 70 14 96 -28 25 -61 21 -125 -18 -32
-19 -60 -35 -63 -35 -2 0 -4 34 -4 75 0 67 -3 79 -25 100 -13 14 -31 25 -40
25 -9 0 -27 -11 -40 -25z M42 690 c-12 -5 -27 -21 -33 -34 -17 -36 7 -68 81
-108 33 -18 60 -35 60 -38 0 -3 -27 -20 -60 -39 -74 -40 -95 -67 -80 -105 5
-14 22 -31 36 -37 28 -10 39 -5 252 117 18 11 35 29 38 41 13 51 -2 67 -123
135 -138 78 -141 80 -171 68z M817 628 c-132 -74 -146 -90 -133 -140 3 -13 20
-31 38 -42 213 -122 224 -127 252 -117 14 6 31 23 36 37 15 38 -7 66 -80 106
-33 18 -60 35 -60 38 0 3 27 20 60 38 73 40 95 68 80 106 -7 20 -43 46 -63 46
-1 0 -60 -32 -130 -72z M442 577 c-29 -29 -52 -59 -52 -68 0 -19 101 -119 121
-119 19 0 119 101 119 121 0 19 -101 119 -121 119 -8 0 -38 -24 -67 -53z m93
-47 c18 -20 18 -21 -3 -43 l-22 -21 -22 21 c-21 22 -21 23 -3 43 10 11 21 20
25 20 4 0 15 -9 25 -20z M270 314 c-63 -36 -123 -73 -132 -81 -39 -35 -10
-103 43 -103 13 0 50 16 82 35 32 19 60 35 63 35 2 0 4 -34 4 -75 0 -67 3 -79
25 -100 31 -31 49 -31 80 0 24 23 25 29 25 165 0 136 -1 142 -25 165 -13 14
-30 25 -37 25 -7 0 -65 -30 -128 -66z M585 355 c-24 -23 -25 -29 -25 -165 0
-136 1 -142 25 -165 31 -31 49 -31 80 0 22 21 25 33 25 100 0 41 2 75 4 75 3
0 31 -16 63 -35 65 -39 102 -44 126 -17 28 30 21 68 -15 95 -46 34 -232 137
-247 137 -6 0 -23 -11 -36 -25z"/>
</g>
</svg>
