<svg xmlns="http://www.w3.org/2000/svg" viewBox="0 0 200 203">
<g transform="translate(0,203) scale(0.1,-0.1)" fill="#29B5E8" stroke="none">
<path d="M840 2020 c-403 -25 -725 -149 -813 -314 l-22 -41 0 -650 c0 -648 0
-650 22 -690 107 -198 478 -319 978 -318 492 0 862 122 968 318 22 40 22 42
22 690 l0 650 -27 47 c-124 210 -599 340 -1128 308z m530 -120 c367 -63 585
-206 514 -338 -52 -97 -248 -188 -504 -234 -167 -30 -481 -36 -660 -13 -223
28 -393 80 -510 156 -143 92 -144 191 -3 285 111 74 329 138 553 163 141 16
466 6 610 -19z m-1135 -553 c197 -97 434 -141 765 -141 368 0 663 64 842 184
l58 38 0 -109 c0 -76 -4 -119 -14 -138 -56 -107 -273 -203 -561 -248 -152 -24
-498 -24 -650 0 -288 45 -505 141 -561 248 -10 19 -14 62 -14 139 l0 111 33
-25 c17 -13 64 -40 102 -59z m-47 -363 c92 -57 244 -106 427 -139 121 -23 496
-31 647 -16 252 27 480 97 598 186 l35 26 3 -123 c3 -143 -3 -163 -66 -219
-268 -235 -1132 -276 -1549 -72 -81 39 -146 91 -168 134 -11 20 -15 63 -15
155 l0 126 23 -16 c12 -9 41 -28 65 -42z m124 -474 c92 -36 245 -72 383 -92
117 -16 493 -16 610 0 233 33 418 91 531 167 l64 43 0 -121 c0 -104 -3 -127
-20 -154 -58 -97 -263 -184 -538 -230 -151 -25 -533 -25 -684 0 -275 46 -480
133 -538 230 -17 27 -20 50 -20 154 l0 121 64 -43 c36 -24 102 -57 148 -75z
M823 1803 c-7 -2 -13 -18 -13 -35 0 -29 -2 -30 -32 -24 -112 20 -230 15 -205
-10 11 -11 267 -64 309 -64 62 0 68 6 68 70 0 44 -4 59 -16 64 -18 7 -93 7
-111 -1z M1072 1798 c-16 -16 -16 -100 0 -116 19 -19 91 -14 233 16 97 20 130
31 130 42 0 12 -14 15 -65 15 -36 0 -86 -4 -112 -9 -46 -8 -48 -7 -48 16 0 36
-19 48 -75 48 -28 0 -56 -5 -63 -12z M468 1683 c-28 -7 -21 -32 10 -39 15 -3
50 -12 77 -19 l50 -12 -60 -12 c-87 -18 -95 -21 -95 -36 0 -28 72 -27 218 5
78 16 145 30 147 30 3 0 5 7 5 15 0 8 -2 15 -3 15 -2 0 -71 14 -152 30 -147
30 -164 32 -197 23z M1336 1660 c-194 -43 -191 -52 32 -95 128 -26 184 -26
198 -3 10 15 -10 24 -89 38 -77 14 -74 21 14 34 26 4 55 13 65 21 18 13 18 14
-9 24 -39 15 -64 13 -211 -19z M928 1642 c-27 -8 -48 -21 -48 -27 0 -14 96
-45 136 -44 36 0 113 31 112 44 -1 14 -87 45 -123 44 -16 0 -51 -8 -77 -17z
m111 -21 c12 -8 9 -11 -11 -16 -34 -9 -77 3 -57 16 18 11 50 11 68 0z M720
1536 c-132 -28 -152 -35 -147 -49 4 -14 118 -16 190 -3 l47 8 0 -30 c0 -34 13
-42 70 -42 65 0 70 5 70 70 0 44 -4 59 -16 64 -29 11 -108 4 -214 -18z M1072
1548 c-16 -16 -16 -100 0 -116 7 -7 35 -12 63 -12 56 0 75 12 75 47 0 27 6 28
98 8 74 -15 127 -9 127 16 0 10 -37 22 -130 41 -142 30 -214 35 -233 16z"/>
</g>
</svg>
